<svg width="36" height="36" viewBox="0 0 36 36" fill="none" xmlns="http://www.w3.org/2000/svg">
<path d="M26.2607 21.4612L26.2472 21.5738C22.9487 19.9298 22.6037 19.7107 22.1778 20.3497C21.8822 20.7923 21.0212 21.7957 20.7617 22.0927C20.4992 22.3853 20.2382 22.4077 19.7927 22.2053C19.3427 21.9803 17.8983 21.5077 16.1882 19.9777C14.8562 18.7852 13.9623 17.3228 13.6982 16.8728C13.2587 16.1137 14.1781 16.0057 15.0152 14.4217C15.1653 14.1068 15.0887 13.8592 14.9778 13.6357C14.8652 13.4108 13.9698 11.2057 13.5947 10.3267C13.2347 9.45075 12.8642 9.56174 12.5867 9.56174C11.7227 9.48675 11.0912 9.49874 10.5347 10.0777C8.1137 12.7387 8.72421 15.4837 10.7957 18.4028C14.8667 23.7308 17.0358 24.7118 21.0017 26.0737C22.0727 26.4142 23.0493 26.3663 23.8218 26.2552C24.6827 26.1187 26.4722 25.1737 26.8457 24.1163C27.2283 23.0588 27.2283 22.1812 27.1157 21.9788C27.0048 21.7762 26.7107 21.6638 26.2607 21.4612Z" fill="white"/>
<path d="M30.78 5.17416C19.2465 -5.97536 0.159 2.11115 0.151501 17.8401C0.151501 20.9841 0.975001 24.0501 2.544 26.7577L0 36.0007L9.50251 33.5227C21.36 39.9277 35.994 31.4226 36 17.8491C36 13.0852 34.14 8.60166 30.7575 5.23266L30.78 5.17416ZM33.0031 17.7997C32.9941 29.2492 20.4255 36.3997 10.485 30.5557L9.94501 30.2346L4.32 31.6972L5.8275 26.2297L5.469 25.6672C-0.717001 15.8197 6.39001 2.94964 18.1081 2.94964C22.0891 2.94964 25.8255 4.50215 28.6395 7.31466C31.452 10.1032 33.0031 13.8397 33.0031 17.7997Z" fill="white"/>
</svg>
